<?xml version="1.0" encoding="iso-8859-1"?>
<!-- Generator: Adobe Illustrator 19.1.1, SVG Export Plug-In . SVG Version: 6.00 Build 0)  -->
<svg xmlns="http://www.w3.org/2000/svg" xmlns:xlink="http://www.w3.org/1999/xlink" version="1.1" id="Layer_1" x="0px" y="0px" viewBox="0 0 48 48" style="enable-background:new 0 0 48 48;" xml:space="preserve">
<polyline style="fill:none;stroke:#455A64;stroke-width:2;stroke-linecap:round;stroke-linejoin:round;stroke-miterlimit:10;" points="  19,5 24,10.891 24,3 "/>
<line style="fill:none;stroke:#455A64;stroke-width:2;stroke-linecap:round;stroke-linejoin:round;stroke-miterlimit:10;" x1="29" y1="5" x2="24" y2="10.891"/>
<path style="fill:#FFD600;" d="M24,10c-9.971,0-18,8.972-18,16.4C6,33.899,14.075,40,24,40s18-6.101,18-13.6  C42,18.972,33.971,10,24,10z"/>
<path style="fill:#FFC107;" d="M24,13c-9.971,0-18,5.972-18,13.4C6,33.899,14.075,40,24,40s18-6.101,18-13.6  C42,18.972,33.971,13,24,13z"/>
<path style="fill:#FFA726;" d="M6.136,28.001c0.044,0.285,0.104,0.567,0.171,0.846c0.032,0.13,0.056,0.262,0.093,0.391  c0.093,0.329,0.208,0.652,0.331,0.971c0.086,0.22,0.183,0.437,0.284,0.653c0.051,0.109,0.104,0.218,0.158,0.326  c0.407,0.806,0.906,1.578,1.497,2.305l0,0C11.84,37.388,17.517,40,24,40c6.484,0,12.161-2.612,15.33-6.509  c0.59-0.726,1.089-1.497,1.496-2.303c0.054-0.109,0.108-0.218,0.159-0.328c0.1-0.215,0.197-0.431,0.283-0.651  c0.124-0.32,0.239-0.643,0.332-0.972c0.037-0.129,0.061-0.261,0.093-0.391c0.068-0.279,0.127-0.561,0.171-0.846  c0.02-0.127,0.039-0.254,0.054-0.382C41.966,27.217,42,26.812,42,26.4c-3.188,4.225-4.076,2.054-4.076,2.054  c-0.823-2.9-3.574-3.564-5.583-4.049c-1.739-0.42-2.828-0.736-3.298-1.584c-0.736-1.328-1.968-3.551-4.863-3.813L24,18.992  l-0.18,0.016c-2.896,0.262-4.127,2.485-4.863,3.813c-0.47,0.848-1.559,1.164-3.298,1.584c-2.009,0.485-4.76,1.149-5.583,4.049  C9.922,28.997,8.375,29.979,6,26.4c0,0.411,0.034,0.817,0.082,1.219C6.097,27.747,6.116,27.874,6.136,28.001z"/>
<path style="fill:#FFE0B2;" d="M36,29c-0.986-3.477-6.806-1.78-8.706-5.209C26.617,22.569,25.811,21.164,24,21  c-1.811,0.164-2.617,1.569-3.294,2.791c-1.9,3.43-7.72,1.733-8.706,5.209s-2,6.198-2,10c0,7.02,8.187,7,14,7s14,0.02,14-7  C38,35.198,36.986,32.477,36,29z"/>
<circle style="fill:#FFFFFF;" cx="15.975" cy="21" r="3"/>
<g>
	<circle style="fill:#445963;" cx="14.975" cy="20" r="1"/>
</g>
<circle style="fill:#FFFFFF;" cx="31.975" cy="21" r="3"/>
<g>
	<circle style="fill:#445963;" cx="30.975" cy="20" r="1"/>
</g>
<line style="fill:none;stroke:#795548;stroke-width:2;stroke-linecap:round;stroke-linejoin:round;stroke-miterlimit:10;" x1="26" y1="27" x2="26" y2="28"/>
<line style="fill:none;stroke:#795548;stroke-width:2;stroke-linecap:round;stroke-linejoin:round;stroke-miterlimit:10;" x1="22" y1="27" x2="22" y2="28"/>
</svg>
